<svg width="16" height="16" viewBox="0 0 16 16" fill="none" xmlns="http://www.w3.org/2000/svg">
<path id="Union" fill-rule="evenodd" clip-rule="evenodd" d="M6.71875 16C6.71909 15.9071 6.71912 15.8142 6.71915 15.7213C6.71925 15.4704 6.71934 15.2197 6.72542 14.9691C6.72792 14.8616 6.68667 14.8304 6.58792 14.8104C5.76917 14.6437 5.00708 14.3341 4.29917 13.8904C4.22586 13.8445 4.15219 13.7986 4.05732 13.7396L4.05557 13.7385L4.05429 13.7377L4.05296 13.7369L4.03917 13.7283L3.47377 14.3065L3.26542 14.5195L2.39449 13.65L1.45708 12.7141L2.24958 11.9316C2.24745 11.9262 2.24582 11.9215 2.24435 11.9172C2.24178 11.9096 2.23969 11.9035 2.23625 11.8982C1.72083 11.1282 1.3625 10.2924 1.18375 9.38191C1.1675 9.29816 1.12833 9.27483 1.04667 9.27608C0.793061 9.28001 0.539234 9.28043 0.285508 9.28084H0.285473H0.285438H0.285403L0.283982 9.28084C0.189301 9.281 0.0946354 9.28115 0 9.28149V6.71892C0.0951212 6.71927 0.190273 6.71933 0.28544 6.71939H0.285449H0.285458H0.285468C0.539207 6.71956 0.793047 6.71972 1.04667 6.72518C1.14333 6.72726 1.17 6.68601 1.18667 6.60309C1.36375 5.72015 1.70625 4.90513 2.2025 4.15427C2.21506 4.13517 2.226 4.11499 2.24096 4.08741L2.24096 4.08741C2.24884 4.07289 2.25783 4.05632 2.26875 4.03677L1.48083 3.26467C1.88172 2.86321 2.2813 2.46344 2.68623 2.05831L3.28667 1.45754L4.07375 2.25464C4.85833 1.72671 5.7075 1.3617 6.6325 1.17545C6.66875 1.16836 6.71792 1.1017 6.71875 1.06211C6.7229 0.790519 6.72142 0.518926 6.71994 0.247522L6.71994 0.247374C6.71949 0.164897 6.71904 0.0824372 6.71875 0H9.28125C9.28091 0.0928931 9.28088 0.185786 9.28085 0.278671V0.278788C9.28076 0.529593 9.28066 0.780337 9.27458 1.03086C9.27208 1.13878 9.31375 1.16961 9.41208 1.18961C10.2683 1.36212 11.0604 1.69296 11.7933 2.16714C11.8273 2.18928 11.8619 2.21031 11.9064 2.23732L11.9608 2.27048C12.1823 2.04423 12.4017 1.82026 12.6074 1.61033L12.6078 1.60991L12.735 1.48004C13.3329 2.07755 13.9271 2.67172 14.5412 3.28586L14.5425 3.28717L14.2295 3.59385C14.0708 3.74931 13.9092 3.90764 13.7483 4.06552C14.4375 5.27701 14.4379 5.27847 14.8224 6.62735L14.8237 6.63226C14.8346 6.67017 14.8983 6.71768 14.9379 6.71851C15.2095 6.72266 15.4811 6.72118 15.7524 6.7197L15.7526 6.7197C15.8351 6.71925 15.9175 6.7188 16 6.71851V9.28108H14.8388C14.6567 10.2457 14.2858 11.1245 13.7333 11.9436L13.8144 12.0242L13.8175 12.0273L13.8176 12.0274C14.0632 12.2715 14.3031 12.5099 14.5346 12.7403C14.1411 13.1335 13.7506 13.5242 13.3549 13.92L13.3476 13.9273L13.3432 13.9317L13.3388 13.9361L12.725 14.55C12.4658 14.2883 12.1971 14.017 11.9263 13.7441C11.115 14.2954 10.2329 14.657 9.28083 14.8421C9.28125 15.2403 9.28125 15.6191 9.28125 15.9974V16H6.71875ZM12.8092 8.00021C12.8096 5.35264 10.6446 3.18883 7.99708 3.19092L7.99707 3.19092C7.17156 3.19157 6.39332 3.40243 5.71323 3.77273C4.21702 4.58738 3.19583 6.1737 3.19125 7.99104C3.18582 10.1466 4.62227 11.9866 6.58709 12.5953C6.88223 12.6867 7.18928 12.7503 7.50516 12.7831C7.66642 12.7998 7.82997 12.8085 7.99542 12.8087L8.02253 12.8086C9.35816 12.8026 10.5699 12.2446 11.4401 11.352C12.2858 10.4843 12.8088 9.30048 12.8092 8.00021ZM6.72504 9.63646L6.72504 9.63643L6.72504 9.63634C6.72717 9.56513 6.72912 9.49956 6.72154 9.43598L6.71916 9.41748C6.70916 9.34873 6.67916 9.26789 6.62999 9.22206C6.18041 8.80288 5.93624 8.29287 5.92999 7.67577C5.92584 7.23496 5.925 6.79416 5.92952 6.35335L5.92957 6.34892C5.92971 6.33567 5.93001 6.3225 5.93047 6.3094C5.95596 5.5838 6.46951 5.08925 7.20457 5.08639C7.74582 5.0843 8.28749 5.0843 8.82874 5.08639C9.58249 5.08889 10.1021 5.60223 10.1129 6.35933L10.1131 6.37168C10.1187 6.79443 10.117 7.21718 10.1129 7.63952C10.1071 8.2412 9.90416 8.77121 9.45041 9.16747C9.38701 9.223 9.34602 9.27885 9.32009 9.33635C9.2676 9.45194 9.27631 9.57415 9.28628 9.71404L9.28874 9.74901C9.96707 9.72734 10.6362 9.71484 11.2133 10.1294C11.4543 9.79014 11.634 9.3971 11.7436 8.97616C12.0741 7.70703 11.7661 6.18409 10.5754 5.1157C9.03291 3.73192 6.65583 3.81983 5.22624 5.30362C4.45633 6.10273 4.13665 7.07596 4.13291 7.98723C4.1294 8.80724 4.38173 9.57712 4.79207 10.1249C4.92371 10.0296 5.06028 9.95733 5.20076 9.90268C5.66496 9.72252 6.17167 9.73408 6.6854 9.7458H6.68543L6.72291 9.74666L6.72305 9.72171C6.72338 9.69231 6.72422 9.66397 6.72504 9.63646ZM7.47333 10.6814H7.6575L7.65749 9.73651L7.6575 9.73633H8.33499V10.6601C8.62635 10.6986 8.91988 10.6897 9.21326 10.6808C9.68137 10.6666 10.1491 10.6524 10.6071 10.8309L10.6069 10.8311L10.6071 10.8311C10.0074 11.4275 9.16935 11.7871 8.2883 11.8528C7.28579 11.9277 6.22754 11.6221 5.40124 10.8524L5.40136 10.8523L5.40125 10.8522C5.5512 10.7626 5.70714 10.71 5.87128 10.692C5.91011 10.6878 5.94939 10.6855 5.98916 10.6851C6.34245 10.6818 6.69573 10.6817 7.04917 10.6817H7.04918C7.19054 10.6816 7.33192 10.6816 7.47333 10.6814ZM8.36863 7.33645H8.36871H8.36874C8.4904 7.33733 8.60737 7.33819 8.72416 7.33478C8.91857 7.32924 9.0557 7.25253 9.12453 7.11351C9.15421 7.05372 9.1712 6.98238 9.17459 6.90019C9.18251 6.7131 9.18167 6.52518 9.17459 6.33809C9.16667 6.12851 9.05834 6.02517 8.84751 6.02434C8.29584 6.02184 7.74376 6.02184 7.19209 6.02434C6.98619 6.02554 6.87732 6.12146 6.86849 6.31621C6.86816 6.32337 6.86796 6.33066 6.86791 6.33808L6.86623 6.52543C6.8626 6.91599 6.85897 7.30674 6.87082 7.69687C6.89332 8.43272 7.57207 8.94732 8.2879 8.77857C8.59082 8.70731 8.82665 8.53606 8.99457 8.2648H8.99434C8.99442 8.26467 8.99451 8.26453 8.99459 8.26439H8.19501V7.33562C8.21217 7.33562 8.2292 7.33565 8.24613 7.33571C8.28753 7.33585 8.32826 7.33615 8.36848 7.33645H8.36855H8.36863Z" fill="black"/>
</svg>
